<?xml version="1.0" standalone="no"?>
<!DOCTYPE svg PUBLIC "-//W3C//DTD SVG 20010904//EN"
 "http://www.w3.org/TR/2001/REC-SVG-20010904/DTD/svg10.dtd">
<svg version="1.0" xmlns="http://www.w3.org/2000/svg"
 width="512.000000pt" height="512.000000pt" viewBox="0 0 512.000000 512.000000"
 preserveAspectRatio="xMidYMid meet">
<metadata>
Created by potrace 1.14, written by Peter Selinger 2001-2017
</metadata>
<g transform="translate(0.000000,512.000000) scale(0.100000,-0.100000)"
fill="#000000" stroke="none">
<path d="M2534 4393 c-11 -2 -28 -17 -37 -32 -14 -25 -17 -59 -17 -230 0 -201
0 -202 25 -226 15 -16 36 -25 55 -25 19 0 40 9 55 25 25 24 25 25 25 226 0
172 -2 205 -17 230 -10 16 -23 29 -29 29 -7 0 -18 2 -26 4 -7 2 -22 1 -34 -1z"/>
<path d="M4073 3762 c-20 -3 -312 -282 -314 -300 0 -4 -2 -17 -5 -30 -3 -16 5
-32 25 -53 54 -53 68 -46 234 120 154 152 169 176 145 223 -11 23 -57 45 -85
40z"/>
<path d="M987 3748 c-24 -19 -38 -64 -28 -90 5 -13 74 -87 153 -165 155 -153
171 -162 221 -123 33 26 42 65 23 95 -9 13 -77 85 -152 159 -118 118 -141 136
-168 136 -18 0 -40 -6 -49 -12z"/>
<path d="M2438 3675 c-2 -1 -30 -5 -63 -8 -194 -18 -416 -96 -600 -211 -451
-279 -737 -785 -737 -1301 1 -154 37 -375 75 -455 l12 -24 1435 0 1435 0 13
27 c7 15 25 80 39 145 22 98 26 145 28 292 1 155 -2 190 -25 305 -33 159 -67
260 -130 387 -169 338 -458 602 -812 742 -71 28 -227 71 -293 81 -22 3 -53 8
-70 11 -32 6 -302 14 -307 9z"/>
<path d="M374 2232 c-29 -4 -59 -61 -50 -95 13 -54 39 -61 250 -61 210 -1 243
6 260 56 11 31 -7 83 -32 94 -17 7 -388 13 -428 6z"/>
<path d="M4308 2209 c-16 -15 -28 -34 -28 -43 0 -33 21 -68 49 -79 39 -16 397
-15 428 2 47 25 53 85 13 125 -19 20 -32 21 -228 22 l-207 1 -27 -28z"/>
<path d="M708 1489 c-41 -41 -32 -97 19 -121 39 -19 3636 -18 3670 0 46 25 53
86 14 125 l-22 22 -1827 1 -1827 0 -27 -27z"/>
<path d="M1500 877 c-58 -15 -74 -87 -30 -132 20 -20 25 -20 1089 -20 l1069 0
25 23 c47 44 16 130 -47 133 -110 6 -2083 2 -2106 -4z"/>
</g>
</svg>
